<?xml version="1.0" encoding="utf-8"?>
<!-- Generator: Adobe Illustrator 25.0.0, SVG Export Plug-In . SVG Version: 6.00 Build 0)  -->
<svg version="1.1" id="Capa_1" xmlns:serif="http://www.serif.com/"
	 xmlns="http://www.w3.org/2000/svg" xmlns:xlink="http://www.w3.org/1999/xlink" x="0px" y="0px" viewBox="0 0 2434.6 1369.5"
	 style="enable-background:new 0 0 2434.6 1369.5;" xml:space="preserve">
<style type="text/css">
	.st0{fill:#FFFFFF;}
</style>
<g>
	<g>
		<path class="st0" d="M311.4,357.4c13.5-25.9,32-49.4,55.4-67c27,25.7,53.2,52.2,80,78.2c25.9-25.8,51.9-51.5,77.8-77.3
			c26.3,19.1,49.2,43.3,65.6,71.4c9.2,16,15.8,33.8,17.7,52.2c1.8,18.1,1.1,36.4-1.9,54.3c50.2-3.8,101.1,13,140.4,44.1
			c13.2,10.3,25.1,22.3,34.8,35.9c-25.9,25.8-51.8,51.7-77.9,77.3c24.7,24.9,49.7,49.7,74.6,74.4c-11.4,16.4-25.3,31.1-40.5,44.1
			c-16.2,13.8-34.3,25.8-54.4,33.1c-26.3,9.8-55.3,9-82.7,5.1c3.8,47-10.5,94.8-37.7,133c-11.4,16.2-25.2,30.7-41.1,42.5
			c-18.5-17.5-36.1-36-54.4-53.8c-7.7-7.8-15.6-15.5-23.2-23.4c-24.6,24.4-48.8,49.2-73.1,74c-15.4-10.2-28.9-22.9-41.3-36.5
			c-18.4-20.6-34.1-44.4-40.8-71.5c-5.3-22.6-4.7-46.2-1.3-69.1c-38.7,3.3-78.1-5.6-112.2-24.1c-24.6-13.5-47.2-31.4-63.8-54.2
			c25.2-25.6,50.5-51.2,75.7-76.8c-24.9-24.6-49.9-49-74.8-73.5c15.2-21.5,33.9-40.6,55.1-56.2c17.9-13,38.2-23.4,60.1-27.5
			c20.4-3.4,41.4-2.9,61.9,0.1C285.8,429.1,294.1,390.8,311.4,357.4z M365.6,323.1c-11.2,11.9-21.3,24.9-29.4,39.3
			c-18.8,33.1-27.5,72.3-22.2,110.1c8.6,3.5,17.5,7.2,23.9,14.2c4.3,4.6,6.7,11.1,5.7,17.4c-1.8,12.6-15.9,23.1-28.4,18.1
			c-12.1-5-17.6-18.4-21.2-30.1c-18-4.1-36.7-4.7-55-2.9c-20.1,2.1-38.8,11.1-55.1,22.6c-14.6,10.4-27.9,22.7-39.5,36.4
			c20,19.4,39.7,39,59.7,58.5c9.9-10.1,19.4-20.6,31.2-28.5c28.9-20,65.5-26.9,100.1-22.8c21.4,2.3,42,9,61.4,18
			c-14.1-29.8-20.6-63.6-16.7-96.5c3.4-29.1,16-57.3,36.7-78.1c4.3-4.2,8.4-8.6,12.8-12.7c-4.8-5.4-10.2-10.1-15.2-15.3
			C398,354.8,382.2,338.5,365.6,323.1z M526.3,323.5c-20.7,20.8-41.7,41.3-62.3,62.1c7.4,7.2,15.1,14.2,21.4,22.4
			c16.3,20.6,25.7,46.2,28,72.2c2.9,32.2-3.9,65.1-18,94.1c26.2-11.8,54.8-18.9,83.6-17.8c27.8,0.8,55.7,9.5,78.1,26.2
			c10.8,7.8,19.7,17.8,29.1,27c20.8-20.6,41.4-41.4,62.3-61.7c-19.2-20-43.3-35.1-69.3-44.6c-25.4-9-53.1-13.2-80-9
			c-2.5,7.2-5.9,14.2-10.9,20.1c-4.2,5-10.2,8.9-16.9,8.9c-14.1,0.6-27.1-15.1-21.5-28.8c5.2-12.2,18.8-17.4,30.5-21
			c4.2-18.9,5.2-38.4,3.1-57.7c-2.4-19.6-11.4-37.8-22.5-53.8C551.2,347.9,539.4,334.9,526.3,323.5z M419.2,434.5
			c-13.8,22.7-18.3,50.1-15.4,76.3c3.6,35.1,19.6,68.2,42.3,95c26.3-29.6,43.1-68.2,44-108c0.7-27.3-7.4-55.3-25-76.5
			c-5.3-6.8-12.1-12.3-17.9-18.7C436.7,412.1,426.4,422.1,419.2,434.5z M253.3,594.9c-12.4,7.4-22.3,18.2-32.2,28.6
			c9.1,8.1,17,17.6,27.1,24.7c22.2,16.1,50.4,22.6,77.5,20.7c35.4-2.3,69.3-17.4,96.6-39.8c2.1-1.9,4.7-3.4,6.1-5.9
			c-24.7-21.4-54.6-37.4-87-43C311.6,574.8,279.3,578.8,253.3,594.9z M463.9,623.8c27.7,24.9,63,42.1,100.4,45.4
			c27.3,2.5,55.8-3.2,78.6-18.8c9.9-6.6,18-15.4,26.3-23.7c-9.4-8.8-17.8-18.8-28.5-26.1c-21-14.8-47.3-21.1-72.8-20
			C529.5,582.2,492.6,598.7,463.9,623.8z M143.8,701.8c38.7,38.3,95.1,59.9,149.6,52.1c2.7-7.5,6-14.9,11.3-20.9
			c3.9-4.6,9.5-8.2,15.7-8.6c14.5-1.2,28.3,15.2,22.1,29.1c-5.3,11.8-18.5,17.1-30.1,20.7c-2.4,11.1-3.6,22.5-3.8,33.9
			c-0.1,15.1,1,30.4,6.6,44.6c10.7,28.1,30.8,51.6,53.2,71.1c19.2-19.8,38.8-39.3,58-59c-7.5-7.6-15.5-14.9-22-23.3
			c-15.4-19.4-24.7-43.3-27.6-67.8c-4.1-33.7,3-68.2,17.6-98.6c-28.6,13.7-60.8,20.3-92.4,17.5c-25.3-2.3-50.1-11.1-70.4-26.6
			c-10-7.5-18.4-16.9-27.4-25.5C184.1,661,163.9,681.3,143.8,701.8z M399.8,750c-0.9,26,5.9,52.7,21.5,73.7
			c6.3,8.9,14.7,16.1,22.3,23.9c9.3-9.9,19.8-18.8,27.3-30.3c15.8-23.2,21.4-52.2,18.5-79.9c-3.5-35.7-19.9-69.3-43.2-96.3
			C419,670.7,401.1,709.6,399.8,750z M665,663.9c-20.4,16.7-46.1,26.4-72.2,29c-33.1,3.4-66.7-4-96.5-18.4
			c14.9,31.8,21.4,68.1,15.6,103c-4.3,26-16.1,51-34.4,70.1c-5.6,5.7-11.3,11.4-16.9,17.2c20.8,20.5,41.4,41.3,62.1,61.8
			c38.6-38.5,60.3-94.8,52.9-149.3c-11.3-4.3-24.2-10.2-28.5-22.5c-5.3-15.4,11.8-33,27.3-27.2c12.5,4.9,18,18.6,21.6,30.6
			c16.8,3.7,34.1,4.8,51.2,3.5c10.2-0.6,20.2-3,29.7-6.7c27-10.8,49.8-30.2,68.9-51.7c-19.7-19.9-39.8-39.4-59.4-59.4
			C679.1,650.4,672.7,657.9,665,663.9z"/>
	</g>
	<path class="st0" d="M1015.7,345.7c36.4-34,88-49.4,137.2-45.3c39.4,3.1,78.8,18.7,106.1,47.8c20.8,21.8,33.2,50.6,37.3,80.2
		c-28.4,0-56.8,0-85.2,0c-5.6-16.4-16.3-31.7-31.8-40.2c-17.7-9.7-39-11.4-58.7-8.2c-19.1,3.3-36.8,14-48.3,29.7
		c-14,18.7-19.4,42.6-18.9,65.7c0.5,25.3,9.9,51,28.3,68.8c14.5,14.4,34.8,22.5,55.1,22.5c18,0.2,36.5-4.4,50.9-15.5
		c12.6-9.5,21.1-23.8,24.8-39c28.4-0.1,56.8,0,85.2,0c-3.1,24.2-11,48.1-24.7,68.4c-18.9,28.5-49.1,48.4-81.8,57.6
		c-50,14.1-106.3,8.4-150.8-19.2c-29-17.8-51.9-45.2-64-76.9c-12.3-31.6-15.1-66.5-10.2-100C971.5,405.7,988.5,370.7,1015.7,345.7z"
		/>
	<g>
		<path class="st0" d="M1762.8,299.3c12.6,0,25.2-0.2,37.7,0.1c50.4,110,101.6,219.5,152.1,329.4c0.7,4.3,0.1,8.6,0.3,12.9
			c-28.3-0.1-56.7,0.2-85-0.2c-6.2-14.2-13.1-28.1-19.5-42.3c-44.4-0.2-88.8,0-133.1-0.1c-6.7,14.2-13.2,28.4-19.9,42.6
			c-28.2-0.1-56.4,0-84.6,0c0.2-4.5-0.5-9.1,0.4-13.5C1661.7,518.6,1712.4,409,1762.8,299.3z M1743.8,524.9c25.4,0,50.7,0,76.1,0
			c-12.8-29.6-25.8-59-38.4-88.6C1768.7,465.7,1756.4,495.4,1743.8,524.9z"/>
	</g>
	<path class="st0" d="M1364.3,303.6c70.4,0,140.8-0.1,211.2,0.1c-0.1,25.7,0,51.5-0.1,77.2c-41.7,0-83.5,0-125.2,0
		c0,16,0,32.1,0,48.1c38.3,0,76.7,0,115,0c-0.1,25.6,0,51.2,0,76.8c-38.3,0-76.7,0-115,0c0,19.7,0,39.5,0,59.2
		c43.2,0.1,86.4-0.2,129.6,0.2c-0.2,25.6-0.1,51.1,0,76.7c-71.8,0.4-143.6-0.1-215.4,0.2C1364.2,529.2,1364.4,416.4,1364.3,303.6z"
		/>
	<path class="st0" d="M1945.3,303.6c83.8,0,167.6,0,251.4,0c-0.1,25.8,0.2,51.6-0.2,77.4c-27.5-0.3-55-0.1-82.5-0.1
		c0.1,72.8,0,145.5,0,218.3c-0.1,14.2,0.3,28.5-0.2,42.7c-28.4-0.3-56.9,0.1-85.3-0.2c0.1-87,0-173.9,0.1-260.9
		c-27.7,0-55.5,0.1-83.2-0.1C1945.3,355,1945.2,329.3,1945.3,303.6z"/>
	<path class="st0" d="M230.1,358.1c1-10.2,11-18.5,21.2-17.4c12,0.5,21.2,13.4,18.1,25c-5.8,21.1-10.5,43.6-5.2,65.2
		c1.1,4.8,3.5,9.1,6.6,12.9c-10.9-6.1-24-4.2-35.6-1.6c-13.9,3.3-26.9,9.3-39.4,16c-9.7,5-22.5,0-26.7-9.9
		c-4.8-9.9-0.2-23.3,10.2-27.4c17.6-5.8,36.8-6.4,54.9-2.5c-11.5-5.1-22.9-10.4-33.8-16.8c-6-3.4-10.9-9.5-11.6-16.5
		c-0.6-4.8,2-10.1,6.8-11.7c7.9-2.7,16.6,1.5,21.6,7.6c8.4,10.2,15.3,21.5,22.7,32.5C231.4,396.4,228.7,376.9,230.1,358.1z"/>
	<path class="st0" d="M620.3,373.4c-3.7-10.6,3.5-22.9,14.3-25.3c10.5-3,22.9,3.8,25.1,14.7c3.3,17.7,2.6,36.5-3.7,53.5
		c7.3-11.2,13.5-23.1,21.9-33.6c5.1-6.1,14.1-10.2,21.8-6.7c5.9,2.8,7,10.4,4.7,16c-2.2,6.2-7.3,10.6-12.9,13.8
		c-10,5.9-20.1,11.6-30.6,16.3c14.7-4.6,30.2-6.7,45.6-5c6.3,0.7,13.4,1,18.4,5.5c7.7,6,9.6,17.9,4.2,26.1
		c-5.1,8.2-16.2,11.6-25,7.9c-15.8-6.2-32.4-11.4-49.5-12.1c-9.3-0.3-19.4,0.3-27.2,5.9c5.5-8.2,6.4-18.4,5.8-28
		C632.1,405.3,626.7,389,620.3,373.4z"/>
	<path class="st0" d="M1496.8,788.7c5.7,0.1,11.5,0,17.2,0c-6.1,7.3-12.3,14.5-18.5,21.8c-4.3,0-8.7,0-13,0
		C1487.3,803.3,1491.9,795.9,1496.8,788.7z"/>
	<path class="st0" d="M172.3,793.3c5.4-3.1,12.4-3.4,18-0.7c16.8,7.9,34.8,14.6,53.6,15.1c7.3,0.2,14.8-0.9,21.1-4.8
		c-5.4,7.6-6.9,17.1-7,26.2c-0.2,17.5,4.2,34.7,9.8,51.2c2.4,7.4,0.1,16.2-5.8,21.4c-8,7.7-22.4,6.6-29-2.4
		c-4-4.7-4.6-11.1-4.8-17.1c-1.1-16.3,1.3-32.9,7.8-48c-6.5,11.2-12.9,22.5-20.4,33.1c-4.2,6-11.1,10.6-18.6,10.2
		c-5-0.1-9.7-4-10.4-9.1c-1.1-7.6,3.4-15.1,9.6-19.3c10.8-7.4,22.6-13.2,34.1-19.6c-17.1,5.5-35.7,5.3-53.2,1.4
		c-7.9-1.8-14-8.9-15-16.9C160.9,806.1,165,797.3,172.3,793.3z"/>
	<path class="st0" d="M648.3,815.3c17.8,0.2,35.3-4.5,52-10.3c10.8-3.4,23.5,4,25.6,15.2c2.5,10.5-5.2,21.9-15.8,23.6
		c-18.4,2.5-37.6,0.9-54.9-6.1l-1.5-1.4c0.1,0.2,0.2,0.7,0.2,0.9c11.2,6.2,22.3,12.6,32.8,19.9c6.2,4.1,10.8,11.2,10.5,18.8
		c-0.1,5.2-4.2,9.9-9.4,10.5c-7.4,0.9-14.5-3.4-18.7-9.2c-7.8-10.9-13.4-23.1-20.2-34.6c6.1,17.4,5.7,36.5,1.6,54.3
		c-3.1,11.6-17.6,17.7-28.2,12.5c-9.5-4-14.6-15.9-10.5-25.4c7.2-15.4,13.4-31.6,15-48.6c0.8-9.2,0.5-19.1-4.5-27.1
		C629.8,813.8,639.3,815.1,648.3,815.3z"/>
	<path class="st0" d="M969.6,844.8c7.6-14.7,23.2-25.1,39.9-25c14.8-0.7,29.8,6.1,38.7,18c-4.4,3.6-9.2,6.7-13.8,10
		c-4.3-5.5-10.4-9.9-17.4-11.2c-9.7-2.1-20.5,1.1-27,8.7c-12.5,13-10.7,36.6,4,47.3c12.4,9.7,32.1,6,40.8-6.9
		c4.8,3,9.2,6.6,13.9,9.9c-13,18.8-40.5,24.1-60.2,13.3c-12.5-7-21.7-19.8-23.6-34.1C963.5,864.8,964.7,854,969.6,844.8z"/>
	<g>
		<path class="st0" d="M1091.8,821.3c12.6-3.1,26.6-1.5,37.5,5.7c10.5,7,18.6,17.9,20.9,30.4c2,10.9,0.8,22.6-4.5,32.4
			c-6.5,11.7-17.8,21-31,23.7c-9.8,2-20.4,1.3-29.6-2.8c-14.2-6.4-24.9-20.2-27.1-35.7c-1.4-10.1-0.2-20.8,4.6-29.9
			C1068.4,833.7,1079.1,824.5,1091.8,821.3z M1097.9,837.4c-12,2.4-21.8,13.2-23.2,25.3c-1.2,8.5,1,17.7,6.7,24.3
			c5.6,6.8,14.4,10.9,23.2,10.5c9.1,0.1,17.8-4.7,23.2-12c6.3-8.2,7.6-19.6,4.1-29.2C1127,842.9,1112.1,834,1097.9,837.4z"/>
	</g>
	<path class="st0" d="M1247.4,821.1c5,0,9.9,0,14.9,0c3.7,30.7,7.5,61.4,11.3,92.1c-5.8,0-11.6,0.1-17.4-0.1
		c-2.3-20.2-4.2-40.5-7.2-60.7c-7.6,16.9-15.9,33.6-23.7,50.4c-4.6,0-9.2,0-13.8,0c-8.2-16.7-15.8-33.7-24.2-50.3
		c-2.4,20.2-4.8,40.5-7.1,60.7c-5.8,0-11.5,0-17.3,0c3.7-30.7,7.7-61.4,11.3-92.1c4.9-0.1,9.8,0,14.7,0c9.7,20.7,19.6,41.3,29.3,62
		C1228,862.5,1237.5,841.7,1247.4,821.1z"/>
	<path class="st0" d="M1328.1,838.4c2.9-8.9,11.3-15.1,20.2-17.4c11-2.6,23.7-1.2,32.3,6.7c5.8,4.9,8.5,12.5,8.5,20
		c-5.7,0.1-11.5,0-17.2,0c-0.3-4.1-2.1-8.3-5.9-10.1c-5.6-2.7-12.8-2.6-17.9,1.1c-4.2,2.9-5.5,9.6-1.9,13.5
		c3.7,4.1,9.5,4.8,14.5,6.4c9.3,2.6,19.3,5.3,25.8,12.9c6.3,7.1,6.6,17.9,3.1,26.4c-3.7,8.6-12.6,14-21.6,15.8
		c-11,2-23.4,0.7-32.1-6.7c-6.3-5-10.1-12.9-10-20.9c5.7,0,11.5,0,17.2,0c1.1,13.6,20.9,17.2,29,7.7c3-3.6,3.2-9.4-0.2-12.8
		c-4.3-4.5-10.7-5.4-16.3-7c-8.4-2-17.3-4.9-23.2-11.6C1326.6,856,1325.7,846.4,1328.1,838.4z"/>
	<g>
		<path class="st0" d="M1477.5,821.3c12.5-3.1,26.5-1.6,37.4,5.5c9.8,6.4,17.5,16.3,20.4,27.7c1.8,7,2,14.5,0.8,21.6
			c-2.4,14.1-12,26.6-24.5,33.3c-9.8,5.2-21.5,6.2-32.3,4c-17.9-3.7-32.4-19.2-35.4-37.1c-1.8-10.8-0.5-22.3,4.8-32
			C1454.8,833.3,1465.2,824.4,1477.5,821.3z M1483.7,837.4c-12,2.4-21.7,13.2-23.2,25.3c-1.2,8.6,1,17.8,6.8,24.4
			c5.6,6.8,14.3,10.8,23.1,10.4c9.1,0.1,17.9-4.7,23.2-12c6.3-8.1,7.5-19.5,4.1-29.1C1512.9,842.9,1497.9,834,1483.7,837.4z"/>
	</g>
	<path class="st0" d="M1554.4,821.2c5.3-0.2,10.7,0,16.1-0.1c11.8,19.6,22.8,39.6,35,58.9c0.3-19.6,0.1-39.2,0.1-58.8
		c5.7-0.1,11.5,0,17.2,0c0,30.7,0,61.4,0,92.1c-5.3,0-10.6,0-15.8,0c-8-13.6-16-27.2-24-40.8c-4-6.2-7-13-11.5-18.7
		c0.1,19.8,0,39.7,0,59.5c-5.7,0-11.3,0-17,0C1554.4,882.5,1554.5,851.9,1554.4,821.2z"/>
	<path class="st0" d="M1751,838.5c2.9-9,11.3-15.2,20.2-17.5c10.4-2.4,22.3-1.4,30.9,5.5c6.6,4.9,9.9,13.1,9.9,21.1
		c-5.7,0.1-11.5,0-17.2,0.1c-0.3-3.8-1.8-7.7-5.2-9.7c-5.4-3.1-12.7-3.1-18,0.2c-4.4,2.6-6.3,9-3.1,13.2c3.5,4.7,9.8,5.4,15,7.1
		c9.3,2.6,19.3,5.2,25.8,12.8c6.3,7.1,6.6,17.9,3.2,26.5c-3.7,8.6-12.6,14-21.5,15.8c-11.5,2.1-24.6,0.6-33.4-7.8
		c-5.6-5-8.8-12.4-8.8-19.9c5.7,0,11.5,0,17.2,0c1.1,13.6,20.9,17.2,29,7.7c2.9-3.6,3.2-9.4-0.2-12.8c-4.3-4.5-10.6-5.4-16.3-7
		c-8.4-2-17.2-4.8-23.2-11.5C1749.6,856.1,1748.6,846.5,1751,838.5z"/>
	<path class="st0" d="M1823.2,821c23,0.2,46.1,0.1,69.2,0c0.3,5.3,0.1,10.5,0.2,15.8c-8.7,0-17.4,0-26.1,0c-0.1,25.5,0,50.9,0,76.4
		c-5.8,0-11.6,0-17.3,0c0-25.5,0.1-51-0.1-76.4c-8.7,0.1-17.4,0-26,0.1C1823.1,831.6,1822.7,826.3,1823.2,821z"/>
	<path class="st0" d="M1973.2,821.1c23.2,0,46.4,0,69.6,0c0,5.2,0,10.5,0,15.7c-8.8,0.1-17.5-0.2-26.2,0.2
		c0.4,25.4-0.1,50.7,0.2,76.1c-5.8,0.2-11.7,0.3-17.5,0c0.4-25.3-0.2-50.7,0.3-76c-8.8-0.5-17.5-0.1-26.3-0.2
		C1973.2,831.6,1973.2,826.4,1973.2,821.1z"/>
	<g>
		<path class="st0" d="M2073.9,821.2c6.2-0.2,12.4,0,18.6-0.2c11.8,30.6,23.1,61.5,34.8,92.2c-6.1,0.1-12.2,0-18.3,0
			c-2.9-7.4-5.5-15-8.6-22.3c-11.3,0.2-22.5-0.1-33.8,0.1c-3.5,7-5.7,14.8-8.7,22.2c-6.2,0-12.3,0-18.5,0
			C2050.9,882.5,2062.5,851.9,2073.9,821.2z M2072.1,875.9c7.6,0.1,15.2,0.1,22.9,0c-3.9-11.5-7.7-23-11.4-34.6
			C2079.3,852.7,2076,864.4,2072.1,875.9z"/>
	</g>
	<g>
		<path class="st0" d="M2236.3,821c12.7,0.2,25.4,0,38.1,0.1c8.1,0.3,16.2,2.8,22.5,7.9c8.7,7,14.2,17.5,15.8,28.5
			c2.1,14.6-0.1,30.6-9.8,42.2c-6.8,8.6-17.7,13.3-28.5,13.5c-12.8,0.1-25.5,0-38.3,0C2236.3,882.5,2236,851.7,2236.3,821z
			 M2253.4,836.8c-0.2,20.2,0,40.4-0.1,60.6c7.9-0.2,15.9,0.5,23.7-0.4c9.7-1.4,15.9-10.5,18-19.4c2.4-10.9,1.4-23.4-5.5-32.6
			c-3.7-5.1-9.9-8.2-16.2-8.2C2266.7,836.8,2260.1,836.9,2253.4,836.8z"/>
	</g>
	<path class="st0" d="M1291.1,821.1c5.7,0,11.3,0,17,0c0.1,30.7-0.1,61.4,0.1,92c-5.7,0.3-11.4,0.1-17.1,0.1
		C1291.1,882.5,1291.1,851.8,1291.1,821.1z"/>
	<path class="st0" d="M1408.5,821.1c5.7,0,11.3,0,17,0c0.1,30.7-0.1,61.3,0.1,92c-5.7,0.3-11.4,0.1-17.1,0.1
		C1408.5,882.5,1408.5,851.8,1408.5,821.1z"/>
	<path class="st0" d="M1678.7,913.2c0.2-30.7-0.2-61.5,0.2-92.2c19,0.3,38,0,57,0.1c0,5.1,0,10.2,0,15.3c-13.4-0.1-26.8,0-40.2,0
		c0,7.9,0,15.8,0,23.6c11.8,0.1,23.6-0.2,35.3,0.1c-0.2,5,0,10-0.2,15.1c-11.7-0.1-23.4,0-35.1-0.1c-0.1,7.6-0.1,15.2,0,22.8
		c13.8-0.1,27.6,0,41.4,0c0,5.1,0,10.2,0,15.3C1717.7,913.2,1698.2,913.3,1678.7,913.2z"/>
	<g>
		<path class="st0" d="M1923.6,821.2c6.2-0.3,12.5,0,18.8-0.2c11.7,30.7,23.1,61.5,34.7,92.2c-6.2-0.1-12.4,0.2-18.5-0.2
			c-2.5-7.4-5.5-14.7-8.2-22c-11.4-0.1-22.9,0-34.3,0c-2.8,7.4-5.5,14.9-8.5,22.3c-6.1-0.1-12.2,0-18.3-0.1
			C1900.6,882.6,1912.4,852,1923.6,821.2z M1933,841.5c-3.6,11.5-7.4,23-11.1,34.5c7.6,0,15.2,0,22.8,0
			C1940.6,864.5,1937.4,852.8,1933,841.5z"/>
	</g>
	<path class="st0" d="M2139,913.1c0.3-30.7,0-61.3,0.1-92c5.7,0,11.4,0,17.1,0c0,25.6,0,51.2,0,76.8c11.9,0,23.8,0,35.7,0
		c0,5.1,0,10.2,0,15.3C2174.3,913.1,2156.6,913.4,2139,913.1z"/>
	<path class="st0" d="M2331.7,913.2c0.2-30.7-0.2-61.5,0.2-92.2c19,0.3,38,0,57,0.1c0,5.1,0.1,10.2-0.1,15.4
		c-13.4-0.1-26.7,0-40.1,0c0,7.9,0,15.8,0,23.6c11.8,0.1,23.6-0.2,35.4,0.1c-0.2,5,0,10-0.2,15c-11.7-0.1-23.4,0-35.1-0.1
		c-0.1,7.6-0.1,15.2,0,22.8c13.8-0.2,27.6,0,41.3-0.1c0,5.1,0,10.2,0,15.3C2370.7,913.2,2351.2,913.3,2331.7,913.2z"/>
	<g>
		<path class="st0" d="M993.1,985.6c6.2-0.2,12.4,0,18.6-0.1c11.8,30.6,23.1,61.5,34.8,92.2c-6.1,0-12.2,0-18.3,0
			c-2.9-7.4-5.5-15-8.6-22.3c-11.3,0.1-22.7,0.1-34,0c-3,7.4-5.7,14.9-8.5,22.3c-6.2,0-12.3,0-18.5,0
			C970.1,1047,981.7,1016.4,993.1,985.6z M991.2,1040.4c7.6,0.2,15.3,0.1,22.9,0c-3.9-11.5-7.7-23.1-11.5-34.6
			C998.5,1017.2,995.2,1028.9,991.2,1040.4z"/>
	</g>
	<path class="st0" d="M1066.9,995.4c17.8-15.9,48.3-15,64.4,2.9c-4.3,3.7-8.5,7.5-12.8,11.1c-6.8-7.5-17.7-10.6-27.5-8.4
		c-12.9,2.8-22.8,15.2-23.3,28.3c-0.9,10.4,3.6,21.1,11.9,27.5c8.3,6.7,20.4,7.8,30.1,3.7c6.7-2.9,12.7-8.8,12.9-16.5
		c-8.5,0-17,0-25.5,0c0-4.7-0.2-9.5,0.2-14.2c15,0.3,30,0,45,0.1c0,13.4-3,27.9-12.9,37.6c-10.6,10.4-26.6,12.7-40.7,10.5
		c-21.3-3.4-38.4-23.5-38.3-45.1C1049.6,1018.9,1056,1004.6,1066.9,995.4z"/>
	<g>
		<path class="st0" d="M1270.1,985.6c6.2-0.2,12.4,0,18.7-0.1c11.7,30.6,23,61.4,34.7,92.1c-6.1,0.1-12.2,0-18.3,0
			c-2.9-7.4-5.6-14.9-8.5-22.3c-11.3,0.1-22.7,0.1-34,0c-3,7.4-5.7,14.9-8.5,22.3c-6.2,0-12.3,0-18.5,0
			C1247.1,1047,1258.7,1016.4,1270.1,985.6z M1279.5,1005.8c-3.7,11.5-7.4,23.1-11.2,34.6c7.6,0.2,15.2,0.1,22.9,0.1
			C1287.1,1028.9,1283.6,1017.2,1279.5,1005.8z"/>
	</g>
	<g>
		<path class="st0" d="M1364.5,985.5c12.7,0.2,25.4,0,38.1,0.1c8,0.3,16.2,2.7,22.5,7.8c8.8,7,14.3,17.5,15.9,28.6
			c2.1,14.5-0.1,30.6-9.8,42.1c-6.8,8.6-17.6,13.3-28.4,13.6c-12.8,0.1-25.6,0-38.4,0C1364.4,1047,1364.2,1016.2,1364.5,985.5z
			 M1381.5,1001.3c0,20.2,0,40.4,0,60.6c7.9-0.2,15.9,0.5,23.8-0.4c9.6-1.4,15.9-10.5,18-19.4c2.4-10.9,1.4-23.4-5.5-32.5
			c-3.7-5.2-10-8.2-16.3-8.2C1394.8,1001.3,1388.1,1001.4,1381.5,1001.3z"/>
	</g>
	<path class="st0" d="M1459.2,985.6c19-0.2,38.1,0.1,57.1-0.2c0.2,5.1,0.1,10.3,0.1,15.4c-13.3-0.1-26.7,0.1-40-0.1
		c-0.4,7.9,0,15.8-0.2,23.6c11.8,0.2,23.5,0,35.3,0.1c0,5,0,10.1,0,15.1c-11.8,0.1-23.6-0.2-35.3,0.1c0.2,7.5,0.1,15,0,22.5
		c13.8,0.1,27.7,0,41.5,0.1c0,5.1,0,10.3,0,15.4c-19.5,0-39,0-58.4,0C1459.2,1047.1,1459.3,1016.4,1459.2,985.6z"/>
	<path class="st0" d="M1557.7,985.6c23.2,0,46.4,0,69.6,0c0,5.2,0,10.5,0,15.8c-8.7,0.1-17.5-0.2-26.2,0.1
		c0.3,25.4-0.1,50.7,0.2,76.1c-5.8,0.4-11.6,0-17.4,0.2c-0.2-25.5,0-51-0.1-76.5c-8.7,0.1-17.4,0-26.1,0
		C1557.7,996.1,1557.7,990.8,1557.7,985.6z"/>
	<path class="st0" d="M1847.5,985.6c7-0.1,13.9,0.1,20.9-0.1c-9.8,14.2-19.4,28.6-29.1,42.8c10.7,16.5,21.4,32.9,32.2,49.4
		c-7,0-13.9,0.1-20.8-0.1c-6-10.1-12.4-20-18.5-30.1c-1.1-1.7-2-3.5-3.6-4.7c-7,11.8-14.3,23.4-21.6,35c-6.8-0.1-13.6,0-20.3,0
		c10.6-16.5,21.3-32.9,32-49.4c-9.7-14.2-19.3-28.5-28.9-42.8c6.9,0,13.9,0,20.8,0.1c5.9,9.6,12.4,18.9,18.1,28.7
		C1835.6,1005.2,1841.1,995.1,1847.5,985.6z"/>
	<path class="st0" d="M1902.4,987.9c19.1-8.2,43.5-2.6,55.9,14.4c-4.4,3.6-9.2,6.7-13.8,10c-4.6-5.9-11.2-10.4-18.8-11.4
		c-9.3-1.6-19.4,1.7-25.6,8.9c-12.5,13-10.7,36.6,4,47.3c12.4,9.7,32.1,6,40.8-6.9c4.8,3,9.2,6.6,13.9,9.9
		c-13,18.7-40.5,24.1-60.2,13.3c-12.1-6.8-21.1-19-23.4-32.7c-1.8-11.2-0.5-23.2,5.3-33.1C1885.6,999.1,1893.2,991.9,1902.4,987.9z"
		/>
	<g>
		<path class="st0" d="M1996,985.7c6.2-0.3,12.4,0,18.6-0.2c11.9,30.6,23.1,61.5,34.8,92.2c-6.1,0.1-12.2,0-18.3,0
			c-2.9-7.4-5.6-14.9-8.5-22.3c-11.3,0.2-22.5-0.1-33.8,0.1c-3.5,7-5.7,14.9-8.7,22.2c-6.2,0-12.3,0-18.5,0
			C1973,1047,1984.6,1016.4,1996,985.7z M1994.1,1040.3c7.6,0.2,15.2,0.1,22.9,0.1c-3.9-11.5-7.7-23.1-11.5-34.6
			C2001.4,1017.2,1998.1,1028.9,1994.1,1040.3z"/>
	</g>
	<g>
		<path class="st0" d="M2151.9,985.6c6.2-0.1,12.4,0,18.6-0.1c11.8,30.6,23.1,61.5,34.8,92.2c-6.1,0.1-12.2,0.1-18.4,0
			c-2.8-7.4-5.6-14.9-8.5-22.3c-11.4,0-22.7,0.1-34.1,0c-3,7.4-5.7,14.9-8.5,22.3c-6.2,0-12.3,0-18.5,0
			C2128.9,1047,2140.4,1016.3,2151.9,985.6z M2161.2,1005.8c-3.7,11.5-7.4,23.1-11.2,34.6c7.6,0.1,15.2,0.1,22.9,0
			C2168.8,1028.9,2165.4,1017.2,2161.2,1005.8z"/>
	</g>
	<path class="st0" d="M1155.9,1045.6c0-20,0-40,0-60c5.8,0,11.6,0,17.4,0c0.2,20,0,40,0.1,59.9c-0.2,8.9,7.6,16.8,16.4,17.2
		c9.7,1,19.4-7.2,19.2-17.1c0.2-20,0-40,0.1-60c5.7,0,11.4,0,17.1,0c0,20.4,0,40.8,0,61.3c-0.1,8.2-3.4,16.3-9.4,22
		c-13.9,14.1-39.6,13.6-52.8-1.2C1158.6,1061.8,1155.8,1053.6,1155.9,1045.6z"/>
	<path class="st0" d="M1642.6,985.6c5.7,0,11.5,0,17.2,0c0.1,25.6-0.3,51.3,0.2,76.9c11.8-0.3,23.5,0.1,35.3-0.2
		c0.4,5.1,0.1,10.3,0.2,15.5c-17.6,0.3-35.3,0-52.9,0.1C1642.6,1047.1,1642.6,1016.3,1642.6,985.6z"/>
	<g>
		<path class="st0" d="M1733.1,985.7c6.3-0.2,12.7-0.2,19.1,0c11.3,30.7,23,61.3,34.4,92c-6-0.1-12,0.1-18-0.1
			c-3.5-7-5.8-14.8-8.8-22.2c-11.4,0-22.9,0-34.3,0c-2.8,7.4-5.5,14.9-8.5,22.3c-6.1-0.1-12.2,0-18.3-0.1
			C1710.1,1047,1721.9,1016.5,1733.1,985.7z M1742.5,1006c-3.6,11.5-7.4,23-11.1,34.5c7.6,0,15.2,0,22.8,0
			C1750.2,1029,1746.9,1017.3,1742.5,1006z"/>
	</g>
	<path class="st0" d="M2061.3,1077.9c-0.2-30.8-0.1-61.6-0.1-92.4c5.7,0,11.4,0,17.1,0c0,25.6,0,51.2,0,76.8c11.9,0,23.8,0,35.7,0
		c0,5.2,0,10.3,0,15.5C2096.5,1077.9,2078.9,1077.8,2061.3,1077.9z"/>
	<path class="st0" d="M84.5,1038.7c2.7,0.1,5.4,0.1,8.1,0.1c-0.1,8.6,0.1,17.2-0.1,25.7c0,6.5-5.4,11.9-11.7,13
		c-8,1.8-17.5-3.6-18.1-12.2c-0.4-8.8-0.1-17.7-0.2-26.5c2.8,0,5.7,0,8.5,0c0.2,8.8-0.3,17.7,0.2,26.5c1.4,6.2,11.4,6,12.7-0.2
		C84.7,1056.3,83.8,1047.4,84.5,1038.7z"/>
	<path class="st0" d="M236.1,1038.8c2.5-0.1,5-0.1,7.5-0.2c4.7,7.1,8,15.1,13.1,21.8c0-7.3,0-14.5,0-21.8c2.8,0,5.6,0,8.3,0
		c-0.1,12.8,0.3,25.7-0.2,38.6c-2.4-0.1-4.7-0.1-7.1,0c-4.6-7.6-8.9-15.4-13.4-23c0,7.6-0.1,15.2,0.1,22.8c-2.8,0.2-5.6,0.2-8.3,0
		C236.3,1064.3,236.2,1051.6,236.1,1038.8z"/>
	<path class="st0" d="M286,1038.7c2.7,0.1,5.4,0.1,8.1,0.1c0.2,8.8-0.4,17.7,0.3,26.6c1.5,6,10.9,6,12.5,0.1
		c0.8-8.8,0.1-17.8,0.3-26.7c2.7,0,5.5,0,8.2-0.1c0.2,8.5,0.1,17,0.1,25.5c0.1,6.8-5.6,12.5-12.2,13.4c-7.8,1.5-17-3.9-17.5-12.2
		C285.8,1056.5,285.6,1047.5,286,1038.7z"/>
	<path class="st0" d="M496.3,1038.7c2.7,0.1,5.4,0.1,8.2,0.1c0.1,5.2,0,10.4,0,15.6c4.5-0.1,9.1,0.2,13.6-0.2
		c-0.2-5.1-0.1-10.2-0.1-15.4c2.8,0,5.6,0,8.3,0c0,12.8,0,25.6,0,38.4c-2.8,0.1-5.6,0.1-8.4,0c0.1-5.1,0-10.2,0.1-15.3
		c-4.5-0.1-9,0-13.5,0c0,5.1,0,10.3,0,15.5c-2.7,0-5.5,0-8.2,0.1C496.1,1064.4,496.1,1051.5,496.3,1038.7z"/>
	<path class="st0" d="M578.1,1042.2c5.5-5.5,16-5.5,21,0.6c1.8,2,2.2,4.8,2.4,7.4c-2.7,0-5.4,0-8.1,0c-0.3-4.8-7.3-5.9-9.6-2.1
		c-1.1,1.6,0,3.6,1.5,4.4c4.4,2.1,9.6,2.5,13.5,5.6c4.3,3.2,4.9,9.8,2.1,14.2c-6.7,9.7-26.2,6.7-26.4-6.4c2.8,0,5.5,0,8.3,0
		c0.9,4.1,5.7,5.8,9.2,3.8c2.5-0.9,3.2-4.9,0.7-6.2c-4.4-2.4-9.8-2.3-13.7-5.6C574.1,1054.3,573.9,1046.4,578.1,1042.2z"/>
	<path class="st0" d="M618.1,1038.8c9.7,0,19.4-0.2,29.1,0.1c-0.1,2.4-0.1,4.9-0.1,7.3c-3.5,0-6.9,0-10.4,0.1c0.1,10.3,0,20.7,0,31
		c-2.8,0-5.5,0-8.2,0.1c-0.3-10.4,0.2-20.9-0.3-31.3c-3.4,0.2-6.8,0.1-10.2,0.1C618.2,1043.7,618.1,1041.2,618.1,1038.8z"/>
	<g>
		<path class="st0" d="M676.1,1039c11.1-3.7,23.8,4.7,25,16.2c1.9,10.9-7,22.2-18.1,22.5c-10.1,1.1-19.8-7.2-20.7-17.2
			C661,1051.2,667.1,1041.6,676.1,1039z M677.2,1047.4c-8.1,3.4-8.9,15.9-1.4,20.4c6.7,4.8,16.8-0.6,17.2-8.6
			C694.2,1050.9,684.8,1043.6,677.2,1047.4z"/>
	</g>
	<path class="st0" d="M113.3,1077.2c0.1-12.9-0.1-25.7,0.1-38.6c2.6,0,5.2,0.1,7.8,0.3c3.9,7.6,8.7,14.8,12.4,22.5
		c0.6-7.5,0.2-15.1,0.3-22.7c2.8,0,5.6,0,8.4,0c-0.1,12.8,0,25.6-0.1,38.5c-2.5,0-5,0-7.6-0.1c-4.1-7.7-9-15-12.7-22.9
		c-0.9,7.6-0.1,15.3-0.5,23C118.7,1077.2,116,1077.2,113.3,1077.2z"/>
	<g>
		<path class="st0" d="M172.4,1038.9c3.1-0.2,6.2-0.2,9.3,0c4.5,12.9,9.6,25.5,14,38.4c-2.9,0-5.7,0-8.6,0c-1.2-3.1-2.4-6.2-3.6-9.2
			c-4.3,0.1-8.6,0.1-12.9,0c-1.2,3.1-2.4,6.2-3.6,9.2c-2.9,0-5.8,0-8.6,0C162.8,1064.3,168,1051.7,172.4,1038.9z M177,1048.2
			c-1.2,4.2-2.4,8.4-3.7,12.7c2.6,0,5.1,0,7.7,0C179.7,1056.6,178.6,1052.3,177,1048.2z"/>
	</g>
	<path class="st0" d="M336.4,1038.8c8.1,0,16.3,0,24.4,0c0,2.4,0,4.8,0,7.3c-5.4,0-10.8,0-16.2,0c0,2.9,0,5.8,0,8.7
		c4.7,0,9.5,0,14.2,0c0,2.3,0,4.7,0,7.1c-4.7,0-9.5,0-14.2,0c0,2.7,0,5.3,0,8c5.6,0.1,11.2-0.1,16.8,0.1c-0.1,2.4-0.1,4.9-0.1,7.4
		c-8.3-0.1-16.6,0.1-24.9-0.1C336.4,1064.3,336.3,1051.5,336.4,1038.8z"/>
	<path class="st0" d="M377,1038.8c2.9,0,5.9,0,8.8,0.1c2.2,8,3.8,16.3,6.8,24c2.1-7.9,4.2-15.8,6.4-23.7c2.7-1,5.9-0.2,8.8-0.4
		c-3.9,12.8-7.7,25.7-11.8,38.5c-2.4,0-4.8,0-7.2,0C384.7,1064.5,380.9,1051.6,377,1038.8z"/>
	<g>
		<path class="st0" d="M432.7,1038.8c3,0,6.1,0,9.1,0.1c4.7,12.9,9.3,25.7,14.3,38.5c-3-0.1-6-0.2-9-0.1c-1.2-3-2.3-6.1-3.4-9.1
			c-4.4,0-8.7,0-13,0c-1.2,3-2.4,6-3.5,9.1c-3,0-5.9,0-8.9,0.1C423.1,1064.4,427.9,1051.6,432.7,1038.8z M433.4,1060.9
			c2.5,0,5.1,0,7.6,0c-1.3-4.3-2.6-8.5-3.8-12.8C435.8,1052.3,434.7,1056.6,433.4,1060.9z"/>
	</g>
	<path class="st0" d="M547.5,1077.2c0-12.8,0-25.7,0-38.5c2.7,0,5.5,0,8.2,0c-0.1,12.9,0.3,25.7-0.2,38.6
		C552.8,1077.2,550.2,1077.2,547.5,1077.2z"/>
	<g>
		<path class="st0" d="M720.1,1038.8c6.5,0,13.1-0.5,19.6,0.3c8.3,1.8,11.5,12.8,7,19.5c-1.6,2.7-4.6,3.9-7.3,5.3
			c3.1,4.4,6.4,8.7,9.2,13.3c-3.3,0-6.5,0-9.8,0c-3.6-4.4-5.4-10.6-10.3-13.8c-0.1,4.6,0,9.2-0.1,13.8c-2.8,0-5.5,0-8.3,0
			C720.1,1064.5,720.3,1051.6,720.1,1038.8z M728.5,1046c0,3.5,0,7.1,0,10.7c2.6,0,5.2,0.1,7.9-0.2c4.5-1.2,4.9-8.2,0.8-10.1
			C734.4,1045.7,731.4,1046.1,728.5,1046z"/>
	</g>
	<path class="st0" d="M767.8,1038.8c2.8,0,5.6,0,8.3,0c0,12.8-0.1,25.6,0.1,38.4c-2.8,0.1-5.7,0.1-8.5,0
		C767.9,1064.3,767.7,1051.5,767.8,1038.8z"/>
	<g>
		<path class="st0" d="M792.3,1077.2c4.7-12.8,9.6-25.6,14.2-38.4c3-0.1,6.1-0.1,9.1-0.1c4.8,12.8,9.5,25.7,14.3,38.5
			c-3,0-5.9,0-8.9-0.1c-1.1-3.1-2.2-6.1-3.3-9.1c-4.4,0-8.7,0-13.1,0c-1.1,3-2.3,6.1-3.4,9.1
			C798.2,1077.2,795.2,1077.2,792.3,1077.2z M810.9,1048.3c-1.2,4.2-2.4,8.4-3.6,12.6c2.6,0,5.1,0,7.7,0
			C813.6,1056.7,812.6,1052.3,810.9,1048.3z"/>
	</g>
</g>
</svg>
